<svg version="1.1" xmlns="http://www.w3.org/2000/svg" viewBox="-1109.0959649396355 -1790.9989862757725 3182.8000487319 3220.6966702381033"><desc>Created with Snap</desc><defs></defs><g><g transform="matrix(6.6043,0,0,6.6043,-838.5593,-1501.514)">
<g id="gSkysojwlu4rp">
	<g>
		<g>
			<g>
				<path d="M394.35947,201.70563c-1.02484,40.03262-14.36957,79.1557-38.30353,111.29541
					c-22.98865,30.87024-55.09421,54.61053-91.40369,67.40912c-38.09433,13.4277-80.22023,14.55121-119.00087,3.27557
					c-37.12295-10.79367-70.57287-32.86734-95.24805-62.61133C25.38264,290.91394,9.88069,253.392,6.43797,214.34755
					c-3.55445-40.31158,7.97381-81.86205,29.65278-115.82537c20.75089-32.50934,51.17118-58.51607,86.54323-73.89827
					C159.49695,8.59337,201.11905,4.49347,240.4381,12.7976c38.12755,8.05249,73.35225,27.80426,100.24336,55.98933
					c26.89423,28.18832,44.95993,64.29681,51.21994,102.76215c1.63016,10.01682,2.66824,20.29828,2.45099,30.45525
					c-0.02887,1.35051-0.02158,2.70317-0.01062,4.05388c0.00223,0.2735,0.01791,2.12119,0.04053,1.06296
					c0.42706-19.9673-1.16046-39.76802-6.2027-59.1438c-5.04739-19.39552-13.13757-37.97497-23.87042-54.89912
					c-21.23846-33.48996-52.69785-60.1273-89.29248-75.43089C236.89044,1.70323,193.83626-1.60377,153.70093,8.22285
					c-38.68525,9.47159-73.96521,31.07151-100.14757,61.06426C26.99277,99.71315,10.40321,138.17885,6.57031,178.38963
					c-3.79564,39.8199,2.91581,80.28514,21.77678,115.73189c18.54498,34.85291,47.74068,63.68491,82.8444,81.75653
					c36.80142,18.94559,79.42824,25.57199,120.27161,18.93204c39.36627-6.39981,76.25104-25.18701,104.71246-53.1062
					c28.71466-28.16757,48.28406-65.08585,55.27084-104.71338c1.72244-9.76938,2.67499-19.65547,2.9288-29.57066
					C394.42081,205.6396,394.32358,203.10771,394.35947,201.70563z" style="" fill="#0560af"></path>
			</g>
			<g>
				<path d="M384.16437,200.95979c-0.96948,37.67242-13.51837,74.48354-36.03699,104.73305
					c-21.60678,29.02463-51.78247,51.36957-85.91025,63.42532c-35.70105,12.61154-75.16084,13.75424-111.55208,3.31155
					c-35.07212-10.06412-66.70206-30.8139-90.04433-58.84158c-23.57951-28.31256-38.23566-63.55717-41.5681-100.25949
					c-3.44505-37.94264,7.43247-77.10228,27.82195-109.0798c19.50157-30.58497,48.08769-55.05418,81.33714-69.56021
					c34.64224-15.11367,73.79033-19.02391,110.77145-11.27026c35.87495,7.52172,69.03416,26.02512,94.38576,52.48471
					c25.34052,26.44804,42.41953,60.36095,48.39987,96.51042c1.56839,9.48041,2.5929,19.22691,2.38849,28.84497
					c-0.02872,1.35051-0.02161,2.70317-0.01062,4.05388c0.0022,0.2735,0.01804,2.1212,0.04053,1.06296
					c0.3988-18.7643-1.03699-37.36839-5.73373-55.58963c-4.71414-18.28885-12.30157-35.81488-22.38492-51.78335
					C336.125,67.41871,306.52921,42.26576,272.0787,27.80338c-35.89688-15.06956-76.44377-18.24041-114.26489-9.02209
					c-36.45747,8.88595-69.70293,29.21078-94.38911,57.45163C38.38953,104.87299,22.7417,141.1198,19.13585,178.99318
					c-3.56545,37.44904,2.62349,75.50336,20.28055,108.89131c17.38305,32.86981,44.8184,60.08994,77.84254,77.18311
					c34.63775,17.92841,74.77824,24.23904,113.27341,18.05304c37.21521-5.98032,72.10785-23.73868,98.97885-50.15134
					c26.93942-26.47995,45.29636-61.12494,51.8902-98.33336c1.6369-9.23688,2.53745-18.58603,2.77872-27.96193
					C384.22592,204.89378,384.1283,202.36186,384.16437,200.95979z" style="" fill="#0560af"></path>
			</g>
			<g>
				<path d="M378.12955,191.33397c-0.90213,34.82123-12.46313,68.84239-33.23041,96.83885
					c-20.05997,27.04294-48.12695,47.84525-79.88693,59.05234c-32.96756,11.63321-69.41772,12.71161-103.03377,3.12222
					c-32.53439-9.28085-61.88795-28.46027-83.57378-54.41476c-21.90107-26.21207-35.53071-58.8539-38.68074-92.87173
					c-3.24719-35.06709,6.89833-71.32854,25.72519-100.88348c18.06519-28.35925,44.55944-51.06163,75.37902-64.51524
					c32.12216-14.02223,68.38997-17.64727,102.68657-10.47926c33.12975,6.92413,63.7787,23.98623,87.24452,48.35861
					c23.54791,24.45763,39.4556,55.85356,45.08145,89.34676c1.47507,8.78174,2.46973,17.83081,2.28183,26.74438
					c-0.02847,1.35052-0.02161,2.70316-0.01065,4.05388c0.00223,0.27348,0.01825,2.1212,0.04056,1.06296
					c0.36649-17.38512-0.90256-34.61259-5.20755-51.50851c-4.30206-16.88425-11.25226-33.07607-20.49515-47.84441
					c-18.41162-29.41833-45.83148-52.87283-77.80072-66.39907c-33.30731-14.09239-70.98164-17.10499-106.12466-8.58576
					c-33.88019,8.2131-64.7917,27.08252-87.71803,53.32784c-23.16263,26.51585-37.65555,60.05003-41.01781,95.10304
					c-3.32995,34.71625,2.26603,70.01709,18.54348,101.02734c16.05161,30.57996,41.47656,55.92804,72.12071,71.86111
					c32.03235,16.65488,69.18037,22.58563,104.82953,16.94745c34.60011-5.47226,67.04689-21.9054,92.05138-46.42136
					c25.05826-24.56866,42.12735-56.76178,48.24323-91.32921c1.5127-8.54979,2.34369-17.20183,2.56851-25.87978
					C378.19144,195.26797,378.09323,192.73601,378.12955,191.33397z" style="" fill="#0560af"></path>
			</g>
		</g>
		<circle cx="200" cy="200" r="164.01196" style="" fill="#0560af"></circle>
	</g>
</g>


<desc>Created with Snap</desc><defs></defs></g><g><g transform="matrix(1.024,0,0,-1.024,0,0)"><path d="M208 85Q208 53 215 38Q223 24 244 18Q266 12 312 12Q315 12 315 6Q315 0 312 0Q271 0 248 1L161 2L89 1Q70 0 37 0Q34 0 34 6Q34 12 37 12Q71 12 86 17Q101 22 106 36Q112 50 112 81L112 544Q112 574 106 588Q101 602 85 607Q70 613 37 613Q34 613 34 619Q34 625 37 625L89 624Q133 622 160 622Q183 622 216 625Q228 626 248 627Q269 628 297 628Q396 628 453 586Q511 544 511 457Q511 394 478 350Q446 306 395 284Q345 262 292 262Q264 262 245 267Q242 267 242 272Q242 275 243 278Q245 281 247 280Q263 276 282 276Q334 276 370 319Q406 362 406 442Q406 521 369 564Q332 608 267 608Q243 608 230 603Q218 598 213 584Q208 571 208 542L208 85ZM769 131Q838 121 873 81Q908 42 908 -11Q908 -59 875 -109Q842 -158 774 -202Q706 -246 606 -275Q602 -276 599 -271Q597 -265 601 -264Q714 -222 763 -156Q812 -89 812 -23Q812 34 782 70Q753 106 700 106Q680 106 657 100Q654 99 652 105Q650 111 653 112Q725 131 757 167Q790 204 790 268Q790 318 772 345Q755 373 721 373Q679 373 646 344Q613 315 592 258Q591 257 588 257Q579 257 580 261L617 407Q619 409 621 409Q624 409 627 407Q630 406 629 405Q627 397 627 394Q627 377 644 377Q656 377 677 385Q700 392 716 395Q733 399 754 399Q812 399 845 365Q878 332 878 285Q878 237 849 194Q820 152 769 131Z" style="" fill="#bbe5e8"></path></g></g></g></svg>